# xmcd CD database file
#
# Track frame offsets:
#	150
#	34995
#	38135
#	65390
#	90345
#	92090
#	124182
#	149462
#	177075
#	182042
#	216330
#	241250
#	256030
#	274767
#	307685
#	328437
#
# Disc length: 4728 seconds
#
# Revision: 1
# Processed by: cddbd v1.5.1PL0 Copyright (c) Steve Scherf et al.
# Submitted via: CDex 1.51
#
DISCID=e0127610
DTITLE=Mondo Grosso - MG4
DYEAR=2000
DGENRE=Jazz
TTITLE0=MG2SS
TTITLE1=into the wind
TTITLE2=BUTTERFLY
TTITLE3=SHOW ME YOUR LOVE
TTITLE4=into the sound
TTITLE5=LIFE feat. PAULA LIMA
TTITLE6=MG4BB
TTITLE7=CENARIO
TTITLE8=into the seawind
TTITLE9=SAMBA DO GATO
TTITLE10=NOW YOU KNOW BETTER
TTITLE11=STAR SUITE I. New Star
TTITLE12=STAR SUITE II. Fading Star
TTITLE13=STAR SUITE III. North Star
TTITLE14=1974-WAY HOME-
TTITLE15=LIFE feat. FACE (M.G 2.7 Stepped Mix-Edit)
EXTD=Sony Music YEAR: 2000
EXTT0=
EXTT1=
EXTT2=
EXTT3=
EXTT4=
EXTT5=
EXTT6=
EXTT7=
EXTT8=
EXTT9=
EXTT10=
EXTT11=
EXTT12=
EXTT13=
EXTT14=
EXTT15=
PLAYORDER=
